<svg xmlns="http://www.w3.org/2000/svg" viewBox="0 0 469.8 80"><defs><style>.a{fill:#1f1a5c;}</style></defs><title>f1</title><path class="a" d="M34.3,84c-3.2-2.1-7.1-2.2-10.6-3.7A52,52,0,0,1,10,72.4c-1.9-1.6-3.6-3.5-1.6-5.9s4-1.7,6.1,0c7.4,6.2,16.2,9,25.6,10.1a28.5,28.5,0,0,0,17.8-3.8c4.9-2.9,7.9-7.2,7.3-13.1S60.1,50.3,54,49a49.6,49.6,0,0,0-13.9-.9c-4.6.1-9.3.4-13.9-.7-12.4-3-20.4-12.3-19.8-23S15.9,5.3,28.8,4.2C43.7,2.9,57.1,7,68.6,16.8c2.2,1.8,4.2,3.9,1.6,6.6s-4.4.7-6.4-1C53,13.3,40.7,9.5,26.7,12c-7.5,1.3-12.1,5.9-12.8,12.1s3.3,12,10.2,15c4.6,2,9.4,2,14.2,1.9s11.3-.3,16.9.9c9.1,1.9,15.8,8.1,17.2,16S69.6,74.3,61.6,79.2c-3.5,2.2-7.6,3-11.3,4.8Z" transform="translate(-6.4 -4)"/><path class="a" d="M235.3,84c-2-5.4-.8-10.9-.7-16.3.2-8.2.9-16.3-3.5-23.8a2.5,2.5,0,0,1,.6-3.6,2.7,2.7,0,0,1,4,.5c1.3,1.9,2.3,3.9,3.7,6.4,3.2-4.7,6.9-8.6,13-7s8.5,6.1,11.2,10.9c1.7-1.1,1.8-2.8,2.6-4.2,5.6-9.5,15.1-10.4,22-1.7S295,63,292.8,72.8c-.9,3.8-2.3,7.4-3.5,11.2h-5c-1.6-2.2-.2-4.1.6-6.1,4.1-9.6,5.1-19.4-.9-28.6-4-6.1-9.3-5.7-12.7.7a31.3,31.3,0,0,0-3.5,18.3c.6,5.3.8,10.6-1.5,15.7h-4c-1.9-5.4-.8-10.9-.7-16.3a28.3,28.3,0,0,0-5.1-17.4c-4.5-6.4-8.8-6.1-12,1a37.8,37.8,0,0,0-3.2,16c0,5.6.4,11.3-2,16.7Z" transform="translate(-6.4 -4)"/><path class="a" d="M193.3,84c-13-7-17.2-17.3-11.9-29.4s20.2-18.3,32.3-14.4c9.3,3,11.5,12.8,4.2,19.6s-16.4,8.2-25.8,9a50,50,0,0,1-5.5.1c1,6.3,4.8,9.6,11.3,10S210,77,215.6,74.6c2.1-.9,4.5-2.7,6,.4s-1.5,3.8-3.5,4.9-6.9,1.8-9.8,4.1Zm-7.6-21.2c10.7,1,21.8-1.5,27.3-6.1,2.3-1.9,4.2-4.1,3.3-7.3s-3.8-3.9-6.6-4.3C197.8,43.5,188,50.7,185.7,62.8Z" transform="translate(-6.4 -4)"/><path class="a" d="M399.3,84c-13-7-17.2-17.3-11.9-29.4s20.2-18.3,32.3-14.4c9.3,3,11.5,12.8,4.2,19.6s-16.4,8.2-25.8,9a50,50,0,0,1-5.5.1c1,6.3,4.8,9.6,11.3,10S416,77,421.6,74.6c2.1-.9,4.5-2.7,6,.4s-1.5,3.8-3.5,4.9-6.9,1.8-9.8,4.1Zm-7.6-21.1c11.8.7,22.5-1.9,27.8-6.7,2.1-1.8,3.7-4,2.8-6.9s-3.3-3.6-5.8-4.1C404.8,42.8,393.7,50.7,391.7,62.9Z" transform="translate(-6.4 -4)"/><path class="a" d="M107.3,84c-9.5-6.6-11.6-15.8-9-26.4s9.3-17.1,20-19.1,20,6.2,18.5,17.7c-1.2,9.2-.7,18.5.5,27.8h-6c-.4-4.3-.8-8.5-1.3-13.5-4.5,6.4-8.7,11.5-15.7,13.5Zm-4.7-18.9c.1.6.3,1.8.4,2.9.6,4.1,1.6,8.1,6,9.6s8-1.2,11-4.4,7.1-10,9.6-15.6a9.6,9.6,0,0,0-1.1-10.3c-2.6-3.3-6.2-3.8-10-3.1C109.1,46.1,102.8,54.3,102.6,65.1Z" transform="translate(-6.4 -4)"/><path class="a" d="M312.3,84c-9.5-6.6-11.6-15.8-9-26.4s9.3-17.1,20-19.1,20,6.2,18.5,17.7c-1.2,9.2-.7,18.5.5,27.8h-6c-.4-4.3-.8-8.5-1.3-13.5-4.5,6.4-8.7,11.5-15.7,13.5Zm-4.7-18.8c.1.6.3,1.7.4,2.9.6,4.1,1.7,8.1,6.1,9.5s7.9-1.3,10.9-4.4c4.3-4.6,7.1-10,9.6-15.7,1.6-3.7,1.3-7.2-1.2-10.3s-6.1-3.7-9.9-3C314.1,46.1,307.7,54.3,307.6,65.2Z" transform="translate(-6.4 -4)"/><path class="a" d="M450.3,84c-3.2-2.2-7.3-3-10.2-5.8-1.3-1.2-2.5-2.5-1.2-4.3s3.1-1.6,4.7-.3a24.2,24.2,0,0,0,15.2,5.3,16.8,16.8,0,0,0,4.5-.5c3.6-1.1,7.2-2.9,6.9-7.3s-4.3-5.6-8-6-9,.1-13.4-1c-6.5-1.7-11-6.7-11.1-12.5s3.9-10.4,10.8-12c9.4-2,17.8.5,25.1,6.7,1.4,1.2,2.6,2.8,1,4.7s-3.3,1.1-4.8-.2A22.6,22.6,0,0,0,451.4,45c-4.2.5-7.8,2.1-7.8,6.8s3.4,6.7,7.6,7.1,8.3.3,12.4.8c7.2.9,11.7,4.6,12.5,10.2s-2.5,9.8-8.3,12.9c-.6.3-1.3.3-1.5,1.2Z" transform="translate(-6.4 -4)"/><path class="a" d="M161.3,84c-7.1-11.8-5-25.1-6.2-38.2h-5.9c-2.2-.1-4.8-.1-4.7-3.1s2.4-2.8,4.5-2.8,4.6,0,7.4,0c0-4.9-.1-9.5.1-14.1,0-2.6-1.2-6.6,3-6.6s2.7,3.9,2.8,6.3c.1,4.7.1,9.3.1,14.5,2,0,3.8-.1,5.6,0s3.2.8,3.2,2.9-1.4,2.6-3,2.7-4.2.1-6.8.1c-.1,10.2.3,19.9,2.4,29.5.6,3.3,5.2,4.7,3.5,8.8Z" transform="translate(-6.4 -4)"/><path class="a" d="M366.3,84c-7.1-11.8-5-25.1-6.1-38.2h-6c-2.2-.1-4.8-.1-4.7-3.1s2.4-2.8,4.5-2.8,4.6,0,7.4,0c0-4.9-.1-9.5.1-14.1,0-2.6-1.2-6.6,3-6.6s2.7,3.9,2.8,6.3c.1,4.7.1,9.3.1,14.5,2,0,3.8-.1,5.6,0s3.2.8,3.2,2.9-1.4,2.6-3,2.7-4.2.1-6.8.1c-.1,10.2.3,19.9,2.4,29.5.6,3.3,5.2,4.7,3.5,8.8Z" transform="translate(-6.4 -4)"/><path class="a" d="M83.3,84c-1.9-3-1.5-6.5-1.4-9.7.4-17.3.9-34.6,1.4-51.8.1-2.2.4-4.4,3-4.4s3,2.5,2.9,4.7c-.5,17-1.1,33.9-1.6,50.8-.1,3.5.8,6.9-.3,10.4Z" transform="translate(-6.4 -4)"/></svg>